<svg viewBox="0 0 916 554" style="width:100px;height:200px" xmlns="http://www.w3.org/2000/svg" xml:space="preserve" version="1.1"><g><title>Layer 1</title><g id="svg_1"><g id="svg_2"><path id="svg_3" fill="#457AA5" d="m556.26,75.55818l32.52,51.78l0,-51.64c0,0 3.67,-2.57 12.49,-2.57c8.94,0 12.58,2.57 12.58,2.57l0,89.72c0,0 -3.52,2.58 -12.46,2.58c-8.67,0 -12.21,-2.3 -12.21,-2.3l-32.65,-51.77l0,51.5c0,0 -3.66,2.58 -12.61,2.58c-8.68,0 -12.34,-2.58 -12.34,-2.58l0,-89.72c0,0 3.4,-2.57 12.48,-2.57c8.67,-0.02 12.2,2.42 12.2,2.42z" class="st0"></path><path id="svg_4" fill="#457AA5" d="m680.25,126.78818l-23.71,0l0,22.91l34.29,0c0,0 2.57,2.84 2.57,9.07c0,6.37 -2.57,9.22 -2.57,9.22l-59.36,0l0,-94.87l56.65,0c0,0 2.71,2.85 2.71,9.22c0,6.23 -2.71,9.21 -2.71,9.21l-31.58,0l0,16.81l23.71,0c0,0 2.58,2.98 2.58,9.21c0,6.51 -2.58,9.22 -2.58,9.22z" class="st0"></path><path id="svg_5" fill="#457AA5" d="m723.89,165.41818l-25.62,-89.72c0,0 3.79,-2.57 12.61,-2.57c8.94,0 12.47,2.57 12.47,2.57l12.87,45.54c0.95,3.39 1.36,5.97 1.76,7.46c0,-0.42 0.68,-4.21 1.49,-7.32l11.24,-45.68c0,0 4.33,-2.57 10.44,-2.57c5.82,0 9.9,2.57 9.9,2.57l10.7,45.54l1.76,7.46c0,-1.23 0.81,-4.62 1.62,-7.32l13.29,-45.68c0.13,0 3.66,-2.57 12.33,-2.57c8.81,0 12.6,2.57 12.6,2.57l-26.02,89.72c0,0 -3.66,2.44 -11.92,2.58c-9.62,0 -13.01,-2.58 -13.01,-2.58l-10.17,-41.61c-0.8,-3.12 -1.36,-6.5 -1.48,-7.19l-1.64,7.19l-10.16,41.61c0,0 -3.52,2.58 -12.47,2.58c-8.8,0 -12.59,-2.58 -12.59,-2.58z" class="st0"></path><path id="svg_6" fill="#457AA5" d="m548.39,193.46818l11.11,19.51c3.8,6.64 5.84,14.1 6.1,15.04c0.28,-0.94 2.17,-8.26 6.1,-15.04l11.38,-19.51c0,0 3.39,-2.44 11.65,-2.44c9.36,0 13.29,3.11 13.29,3.11l-29.96,51.77l0,37.4c0,0 -3.52,2.59 -12.47,2.59c-8.82,0 -12.33,-2.59 -12.33,-2.59l0,-37.8l-29.94,-51.36c0,0 4.07,-3.11 13.41,-3.11c8,0 11.66,2.43 11.66,2.43z" class="st0"></path><path id="svg_7" fill="#457AA5" d="m653.42,286.85818c-31.99,0 -45.94,-18.71 -45.94,-48.25c0,-29.55 13.96,-48.52 45.94,-48.52c31.85,0 45.94,18.97 45.94,48.52c0,29.53 -14.08,48.25 -45.94,48.25zm0,-18.31c13.54,0 20.87,-12.19 20.87,-29.94c0,-17.75 -7.33,-30.09 -20.87,-30.09c-13.55,0 -20.86,12.34 -20.86,30.09c0,17.75 7.31,29.94 20.86,29.94z" class="st0"></path><path id="svg_8" fill="#457AA5" d="m737.86,283.31818c0,0 -3.66,2.59 -12.61,2.59c-8.81,0 -12.34,-2.59 -12.34,-2.59l0,-88.49c0,0 10.17,-4.74 28.87,-4.74c28.32,0 41.47,10.84 41.47,29.81c0,18.71 -14.37,26.28 -16.13,26.43l21.95,36.46c-2.7,1.75 -10.15,3.11 -15.17,3.11c-6.51,0 -11.65,-2.3 -11.65,-2.3l-16.53,-28.86c-0.96,-2.04 -2.31,-3.53 -4.61,-3.53l-3.25,0l0,32.11zm7.04,-74.8c-4.07,0 -7.05,0.81 -7.05,0.81l0,23.58l6.77,0c9.88,0 13.69,-6.91 13.69,-12.19c0,-6.91 -4.74,-12.2 -13.41,-12.2z" class="st0"></path><path id="svg_9" fill="#457AA5" d="m885.02,282.64818c0,0 -6.36,3.26 -16.67,3.26c-8.81,0 -12.47,-2.3 -12.47,-2.3l-32.11,-43.64l0,43.36c0,0 -3.39,2.59 -12.34,2.59c-8.95,0 -12.6,-2.59 -12.6,-2.59l0,-89.7c0,0 3.65,-2.58 12.6,-2.58c8.81,0 12.34,2.58 12.34,2.58l0,42.15l31.04,-42.29c0,0 3.65,-2.44 12.46,-2.44c10.16,0 14.24,3.38 14.24,3.38l-30.36,41.35l33.87,46.87z" class="st0"></path><path id="svg_10" fill="#457AA5" d="m595.84,315.44818c1.75,8.67 -2.86,15.58 -8.01,17.34c-5.01,-3.38 -13,-6.37 -21.4,-6.37c-8.54,0 -13.29,3.25 -13.29,7.86c0,4.34 3.93,5.83 14.36,9.23l13.01,4.19c13.97,4.6 22.63,11.66 22.63,26.56c0,17.22 -11.38,30.5 -39.03,30.5c-19.38,0 -31.32,-6.51 -35.65,-10.84c-1.35,-6.37 2.16,-14.37 7.2,-16.94c4.33,3.26 17.2,9.49 30.34,9.49c7.87,0 12.21,-2.84 12.21,-8c0,-3.65 -2.31,-5.96 -7.73,-7.73l-21.81,-6.63c-11.67,-3.67 -20.47,-12.06 -20.47,-25.76c0,-19.52 13.27,-30.35 37.8,-30.35c15.6,0 24.68,4.2 29.84,7.45z" class="st0"></path><path id="svg_11" fill="#457AA5" d="m609.91,327.36818c0,0 -2.58,-2.71 -2.58,-9.22c0,-6.23 2.58,-9.22 2.58,-9.22l73.59,0c0,0 2.58,2.85 2.58,9.22c0,6.37 -2.58,9.22 -2.58,9.22l-24.4,0l0,73.86c0,0 -3.52,2.57 -12.33,2.57c-9.08,0 -12.74,-2.57 -12.74,-2.57l0,-73.86l-24.12,0z" class="st0"></path><path id="svg_12" fill="#457AA5" d="m736.89,311.37818l36.6,89.44c0,0 -3.66,2.99 -12.88,2.99c-8.54,0 -11.91,-2.44 -11.91,-2.44l-6.65,-15.59l-34.83,0l-6.24,15.59c0,0 -3.52,2.44 -11.92,2.44c-9.21,0 -13.15,-2.99 -13.15,-2.99l36.6,-89.44c0,0 3.38,-2.44 12.18,-2.44c8.83,0 12.2,2.44 12.2,2.44zm-22.36,56.24l20.2,0l-6.78,-16.27c-1.35,-3.25 -3.12,-9.89 -3.27,-10.57c-0.26,0.68 -2.3,7.32 -3.51,10.57l-6.64,16.27z" class="st0"></path><path id="svg_13" fill="#457AA5" d="m766.03,327.36818c0,0 -2.58,-2.71 -2.58,-9.22c0,-6.23 2.58,-9.22 2.58,-9.22l73.59,0c0,0 2.57,2.85 2.57,9.22c0,6.37 -2.57,9.22 -2.57,9.22l-24.4,0l0,73.86c0,0 -3.51,2.57 -12.33,2.57c-9.08,0 -12.74,-2.57 -12.74,-2.57l0,-73.86l-24.12,0z" class="st0"></path><path id="svg_14" fill="#457AA5" d="m902.37,362.59818l-23.72,0l0,22.91l34.28,0c0,0 2.58,2.85 2.58,9.07c0,6.38 -2.58,9.22 -2.58,9.22l-59.36,0l0,-94.88l56.65,0c0,0 2.71,2.85 2.71,9.22c0,6.23 -2.71,9.22 -2.71,9.22l-31.58,0l0,16.8l23.72,0c0,0 2.57,2.99 2.57,9.23c0.01,6.5 -2.56,9.21 -2.56,9.21z" class="st0"></path></g><path id="svg_15" fill="#154973" d="m521.37,553.61818c-1.37,0 -2.84,-0.26 -4.27,-1.04c-2.14,-1.17 -3.63,-3.11 -4.18,-5.45c-0.64,-2.7 0.08,-5.72 2.01,-8.49l0.62,-0.92c0.63,-0.94 1.29,-1.86 2.03,-2.7c0.83,-0.93 1.68,-1.58 2.39,-2.04c-0.51,-2.82 -0.33,-5.26 -0.06,-7.48c0.2,-1.84 0.68,-3.4 1.07,-4.64c0.17,-0.53 0.34,-1.07 0.47,-1.65c1.04,-4.39 1.71,-8.47 2.07,-12.44c0.33,-3.56 0.27,-3.63 -0.35,-4.42c-1.91,-2.37 -5.14,-4.07 -8.57,-5.87c-1.66,-0.87 -3.29,-1.75 -4.86,-2.69c-9.92,-6.06 -19.85,-12.13 -29.76,-18.21l-3.49,-2.14c-0.8,-0.48 -2.2,-1.19 -3.87,-2.07c-10.96,-5.66 -18.23,-9.82 -19.44,-15.79c-0.18,-0.87 -1.1,-2.97 -1.74,-3.98c-0.44,-0.03 -1.57,-0.12 -2.35,-0.17c-3.6,-0.29 -9.05,-0.75 -13.38,-5.31c-0.87,-0.93 -1.74,-1.8 -2.54,-2.63c-6.05,-6.18 -11.27,-11.51 -11.96,-24.75c-0.09,-1.73 -0.08,-3.51 -0.05,-5.3c0.06,-5.48 -0.01,-8.95 -2.23,-11.18c-1.05,-1.06 -2.82,-1.77 -4.87,-2.6c-2.52,-1.01 -5.38,-2.17 -8.04,-4.38c-0.82,-0.69 -1.75,-1.69 -2.79,-2.85c-1.09,-1.26 -2.76,-3.15 -3.9,-3.54c-8.43,-2.92 -18.55,-3.18 -29.06,-3.18l-347.13,-0.27c-2.18,0 -4.13,0.23 -6.02,0.44c-4.21,0.48 -8.98,1.03 -12.84,-2.4c-3.73,-3.34 -4.25,-8.43 -4.26,-12.99l-0.02,-24.24c0,-1.28 0.36,-2.54 1.03,-3.63c3.2,-5.13 9.42,-7.88 14.91,-10.31c2.05,-0.91 4.18,-1.84 5.32,-2.59c2.95,-1.96 5.61,-4.58 8.43,-7.37c2.11,-2.08 4.3,-4.23 6.74,-6.23c3.37,-2.76 7.19,-4.78 10.9,-6.73c3.2,-1.68 6.2,-3.27 8.28,-5.01c1.48,-1.23 2.57,-3.27 3.87,-5.64c1.39,-2.57 2.98,-5.49 5.46,-8.04c2.67,-2.74 6.05,-4.64 9.02,-6.31c6.81,-3.85 6.65,-4.24 5.58,-6.81c-0.5,-1.2 -0.99,-2.23 -1.41,-3.15c-2,-4.31 -3.71,-8.01 -2.55,-15.69c0.12,-0.75 0.26,-1.54 0.4,-2.36c0.27,-1.39 0.75,-3.96 0.47,-4.7l0,0c0,0 -0.14,-0.11 -0.42,-0.26c-0.24,-0.12 -1.08,-0.11 -1.7,-0.1c-1.99,-0.02 -5.63,0.09 -8.39,-3.02c-2.75,-3.08 -2.59,-7.18 -2.15,-10.4c0.43,-3.25 0.21,-5.34 0,-7.18c-0.85,-7.82 1.78,-11.48 10.87,-15.08c27.16,-10.8 49.17,-14.45 69.25,-11.51c1.19,0.17 2.81,-0.15 4.68,-0.54c2.83,-0.57 6.32,-1.26 10.18,-0.52l21.34,4.04c8.73,1.66 13.01,3.31 19.56,9.29c3.36,3.07 4.72,2.74 10.53,0.67c2.91,-1.03 6.22,-2.19 10.24,-2.73c6.56,-0.87 12.71,-0.29 18.65,0.28c2.67,0.25 5.36,0.51 8.07,0.62c3.02,0.11 6.84,-1.29 10.56,-2.65c1.64,-0.6 3.25,-1.19 4.81,-1.68c3.47,-1.08 6.72,-1.56 9.86,-2.04c1.55,-0.25 3.1,-0.48 4.68,-0.79c0.11,-0.2 0.22,-0.4 0.34,-0.62c0.49,-0.87 1.03,-1.78 1.7,-2.72c2.89,-3.94 7.04,-6.45 10.37,-8.5l1.39,-0.85c3.57,-2.22 6.71,-4.27 9.19,-6.78c4.48,-4.62 10.43,-4.3 14.4,-4.1c1.38,0.08 3.47,0.17 4.09,-0.09c2.64,-1.16 0.32,-9.29 -1.06,-14.15c-0.97,-3.41 -1.81,-6.36 -1.98,-9.04c-0.48,-7.59 3.72,-12.95 7.1,-17.25c2.65,-3.38 4.25,-5.6 4.2,-7.74c-0.01,-0.41 -0.14,-0.98 -0.32,-1.52c-2.32,1.11 -6.04,2.54 -10.3,0.58c-6.83,-3.14 -10.58,-14.25 -8.49,-20.57c1.73,-5.24 7.06,-8.62 10.95,-11.1l1.4,-0.91c3.32,-2.22 6.84,-4.1 10.22,-5.91c4.73,-2.51 9.19,-4.89 12.71,-7.96c1.49,-1.31 2.88,-2.59 4.24,-3.86c3.06,-2.83 6.22,-5.76 9.94,-8.36c0.27,-0.95 0.5,-2.74 0.66,-3.9c0.3,-2.2 0.6,-4.48 1.4,-6.45c3.8,-9.48 13.1,-16.87 21.3,-23.41c2.72,-2.16 5.3,-4.21 7.32,-6.07c1.28,-1.18 2.54,-2.37 3.8,-3.55c6.08,-5.7 12.35,-11.6 19.99,-16.31c6.19,-3.8 14.27,-8.55 21.8,-11.38c9.96,-3.74 14.68,-3.46 24.09,-2.92l1.75,0.09c17.55,1.01 35.76,0.54 53.37,0.1c8.84,-0.23 17.64,-0.46 26.41,-0.51c2.36,-0.01 5.95,-0.45 9.72,-0.92c12.54,-1.54 26.74,-3.3 34.81,3.67c3.38,2.91 5.23,6.99 5.34,11.8c0.08,3.79 -1.5,6.63 -2.66,8.71c-0.38,0.66 -0.93,1.68 -1,2.03c0.03,-0.11 0.4,0.45 0.66,0.85c1.29,1.91 3.67,5.47 2.71,10.78c-0.36,2.04 -0.96,4.21 -1.57,6.41c-0.77,2.78 -1.56,5.66 -1.63,7.84c-0.13,3.79 -3.37,6.84 -7.09,6.63c-3.78,-0.13 -6.76,-3.29 -6.63,-7.09c0.14,-3.79 1.19,-7.64 2.13,-11.03c0.49,-1.79 0.99,-3.54 1.29,-5.21c-0.09,-0.01 -0.36,-0.32 -0.59,-0.68c-1.11,-1.66 -3,-4.45 -3,-8.56c0,-3.76 1.58,-6.58 2.73,-8.64c0.35,-0.62 0.88,-1.55 0.95,-1.89c-0.05,-1.08 -0.4,-1.39 -0.6,-1.55c-3.47,-2.99 -16.93,-1.34 -24.15,-0.44c-4.21,0.51 -8.17,1.01 -11.33,1.03c-8.67,0.05 -17.41,0.27 -26.15,0.48c-17.89,0.46 -36.39,0.94 -54.48,-0.09l-1.78,-0.11c-8.85,-0.52 -11.23,-0.65 -18.46,2.07c-6.5,2.45 -14.2,7 -19.42,10.22c-6.46,3.98 -11.96,9.15 -17.78,14.62c-1.3,1.22 -2.59,2.44 -3.91,3.65c-2.41,2.2 -5.16,4.4 -8.07,6.71c-6.88,5.48 -14.66,11.67 -17.13,17.8c-0.17,0.5 -0.39,2.09 -0.53,3.15c-0.58,4.42 -1.32,9.92 -5.81,12.91c-3.19,2.14 -6.04,4.8 -9.07,7.6c-1.45,1.35 -2.94,2.72 -4.52,4.1c-4.7,4.13 -10.09,7 -15.3,9.76c-3.24,1.72 -6.29,3.34 -9.02,5.18c-0.49,0.34 -1.08,0.7 -1.7,1.1c-1.29,0.82 -4.14,2.62 -5.15,3.78c0.08,0.78 0.39,1.91 0.79,2.81c1.68,-0.8 4.02,-1.78 6.85,-1.56c8.02,0.68 11.88,9.54 12.04,15.63c0.19,7.25 -3.88,12.43 -7.14,16.57c-2.68,3.44 -4.34,5.66 -4.2,7.92c0.08,1.2 0.82,3.82 1.48,6.14c2.44,8.57 6.98,24.52 -6.61,30.48c-3.6,1.59 -7.34,1.39 -10.35,1.24c-1.28,-0.07 -3.41,-0.17 -4,0.09c-3.39,3.51 -7.42,6.13 -11.58,8.74l-1.51,0.93c-2.54,1.54 -5.16,3.15 -6.44,4.89c-0.33,0.45 -0.6,0.93 -0.84,1.38c-1.27,2.24 -3.41,6.02 -9.06,7.18c-1.96,0.41 -3.89,0.72 -5.82,1.01c-2.76,0.42 -5.38,0.82 -7.86,1.58c-1.33,0.43 -2.74,0.93 -4.15,1.46c-4.75,1.74 -10.14,3.74 -15.84,3.48c-2.96,-0.12 -5.88,-0.39 -8.81,-0.67c-5.41,-0.53 -10.54,-1.01 -15.53,-0.33c-2.6,0.35 -4.97,1.18 -7.47,2.07c-6.25,2.21 -14.8,5.23 -24.35,-3.48c-4.22,-3.84 -5.92,-4.62 -12.88,-5.94l-21.33,-4.04c-1.26,-0.23 -2.97,0.1 -4.95,0.49c-2.59,0.52 -5.82,1.14 -9.32,0.65c-17.63,-2.59 -37.39,0.82 -62.23,10.7c-1.01,0.4 -1.74,0.72 -2.28,0.97c0.22,1.9 0.5,4.63 0.17,8.38c1.46,0.2 3.1,0.63 4.81,1.53c9.75,5.13 7.93,14.92 7.05,19.63c-0.13,0.64 -0.24,1.28 -0.34,1.9c-0.54,3.59 -0.21,4.33 1.43,7.84c0.5,1.07 1.04,2.26 1.62,3.65c5.95,14.23 -5.42,20.63 -11.52,24.06c-2.27,1.28 -4.62,2.58 -5.9,3.91c-1.16,1.2 -2.18,3.06 -3.25,5.03c-1.7,3.14 -3.63,6.69 -7.07,9.58c-3.22,2.7 -7.03,4.72 -10.72,6.65c-3.25,1.71 -6.33,3.33 -8.63,5.22c-1.93,1.59 -3.8,3.43 -5.77,5.38c-3.18,3.12 -6.43,6.35 -10.53,9.05c-2.11,1.38 -4.64,2.51 -7.32,3.7c-2.19,0.96 -5.9,2.59 -7.79,4l0.04,21.61c0,0.79 0.02,1.44 0.05,1.94c0.58,-0.05 1.2,-0.12 1.72,-0.19c2.07,-0.23 4.64,-0.53 7.61,-0.53l347.14,0.26c11.26,0 23.11,0.32 33.52,3.93c4.56,1.56 7.68,5.1 9.74,7.43c0.48,0.55 0.89,1.05 1.27,1.39c0.99,0.82 2.56,1.45 4.38,2.19c2.87,1.16 6.44,2.61 9.47,5.67c6.39,6.41 6.29,14.52 6.22,21.02c-0.04,1.5 -0.04,2.99 0.02,4.43c0.43,8.05 2.66,10.32 8.06,15.83c0.86,0.88 1.76,1.8 2.72,2.81c0.67,0.7 2.15,0.86 4.53,1.07c2.87,0.23 6.44,0.51 9.57,2.86c3.42,2.54 5.73,8.19 6.58,11.13c2.13,2.05 9.63,5.94 12.57,7.45c2.04,1.06 3.74,1.96 4.73,2.56l3.49,2.14c9.91,6.05 19.81,12.12 29.74,18.18c1.32,0.79 2.69,1.53 4.1,2.26c4.32,2.27 9.21,4.85 12.89,9.44c4.02,5.01 3.74,9.54 3.38,13.55c0.58,-1.1 1.22,-2.15 1.97,-3.17c1.36,-1.91 2.95,-3.36 4.36,-4.65c1.4,-1.27 2.36,-2.17 2.69,-2.89c-0.27,-0.62 -0.89,-1.66 -1.31,-2.37c-1.67,-2.82 -3.94,-6.69 -2.87,-11.25c0.42,-1.76 1.51,-3.29 3.04,-4.25c0.58,-0.36 1.81,-1.05 3.43,-1.93c2.24,-1.23 7.93,-4.34 11.39,-6.66c-5.15,-11.26 -3.44,-25.1 -1.91,-37.5c0.47,-3.83 0.92,-7.44 1.13,-10.69c0.22,-3.78 3.43,-6.66 7.26,-6.43c3.79,0.23 6.67,3.49 6.43,7.27c-0.21,3.66 -0.7,7.49 -1.2,11.54c-1.44,11.72 -3.09,25.01 2.2,32.6c1.24,1.77 1.65,4.01 1.15,6.15c-1.06,4.51 -5.69,7.91 -17.92,14.68c1.6,2.72 3.52,6.34 2.84,10.63c-0.11,0.65 -0.25,1.27 -0.42,1.86c3.42,-1.23 7,-2.39 10.78,-3.46c14.27,-4.06 29.26,-5.87 48.56,-5.87c8.54,0 16.14,-2.71 24.2,-5.57c6.38,-2.28 12.98,-4.62 20.37,-5.74c6.24,-0.96 9.47,1.06 12.26,3.2c0.93,0.72 1.61,1.22 2.78,1.68c3.26,1.27 7.05,0.86 11.43,0.4c4.43,-0.48 9.46,-1.03 14.59,0.29c3.05,0.8 5.18,3.56 5.14,6.71c-0.12,11.94 -16.17,16.86 -23.88,19.23l-7.34,2.3c-5.53,1.76 -11.08,3.51 -16.68,5.11c-2.53,0.71 -5.04,1.42 -7.56,2.06c-2.9,0.73 -5.87,2.39 -8.99,4.12c-3.21,1.79 -6.52,3.63 -10.33,4.89c-6.59,2.14 -13.34,3.26 -21.91,3.61c-2.46,0.11 -4.84,1.19 -7.35,2.3c-3.71,1.69 -8.34,3.77 -13.51,2.09c-2.21,-0.27 -10.83,2.66 -14.96,4.09c-3.26,1.1 -6.07,2.06 -8.28,2.58c-7.62,1.78 -15.37,3.18 -22.86,4.54l-5.26,0.96c-4.56,0.84 -9.15,1.71 -13.68,2.72l-0.55,0.16c-1.3,0.4 -3.12,0.96 -5.11,0.96zm13.96,-33.48c-0.17,0.73 -0.34,1.46 -0.51,2.21c-0.21,0.87 -0.46,1.71 -0.71,2.53c-0.27,0.91 -0.49,1.61 -0.57,2.21c-0.2,1.74 -0.22,2.68 -0.01,3.62c0.53,2.56 0.42,4.69 -0.03,6.44c1.57,-0.3 3.15,-0.6 4.73,-0.9l5.31,-0.95c7.32,-1.33 14.9,-2.7 22.19,-4.4c1.53,-0.36 4.17,-1.25 6.97,-2.2c10.76,-3.67 18.21,-5.93 23.64,-4.15c0.36,-0.07 2.32,-0.96 3.62,-1.54c3.25,-1.47 7.29,-3.29 12.39,-3.51c7.27,-0.3 12.88,-1.21 18.23,-2.96c2.56,-0.83 5.15,-2.27 7.91,-3.82c3.77,-2.09 7.66,-4.26 12.32,-5.44c2.38,-0.6 4.78,-1.27 7.16,-1.94c5.46,-1.57 10.9,-3.29 16.29,-5.01l5.01,-1.56c-1.91,-0.27 -3.84,-0.74 -5.79,-1.51c-3,-1.16 -4.88,-2.62 -6.13,-3.58c-0.31,-0.23 -0.57,-0.47 -0.88,-0.65c-0.02,0.04 -0.36,0.04 -1,0.13c-6.08,0.92 -11.78,2.94 -17.81,5.09c-8.81,3.13 -17.89,6.37 -28.8,6.37c-17.99,0 -31.8,1.65 -44.81,5.35c-11.67,3.3 -21.17,7.39 -29.06,12.47c-2.32,1.5 -5.29,1.46 -7.57,-0.08c-0.88,-0.56 -1.6,-1.33 -2.09,-2.22z" class="st1"></path><g id="svg_16"><path id="svg_17" fill="#154973" d="m684.49,521.41818c0,0 -0.18,-0.2 -0.18,-0.72c0,-0.5 0.18,-0.72 0.18,-0.72l9.44,0c0,0 0.19,0.22 0.19,0.72c0,0.5 -0.19,0.72 -0.19,0.72l-3.72,0l0,11.26c0,0 -0.28,0.2 -0.98,0.2c-0.72,0 -1.02,-0.2 -1.02,-0.2l0,-11.26l-3.72,0z" class="st1"></path><path id="svg_18" fill="#154973" d="m702.86,532.12818c-0.15,0.09 -0.4,0.2 -0.83,0.2c-0.3,0 -0.65,-0.06 -0.79,-0.2l-2.88,-7.23c-0.17,-0.39 -0.44,-1.16 -0.46,-1.27c0,0.05 -0.07,1.07 -0.11,1.36l-0.53,7.69c0,0 -0.26,0.2 -0.98,0.2c-0.72,0 -1.02,-0.2 -1.02,-0.2l1,-12.5c0,0 0.28,-0.2 0.96,-0.2c0.76,0 1.03,0.2 1.03,0.2l3.34,8.43l0.44,1.38c0.01,-0.06 0.31,-0.98 0.46,-1.38l3.34,-8.43c0,0 0.29,-0.2 1.05,-0.2c0.67,0 0.94,0.2 0.94,0.2l1,12.5c0,0 -0.3,0.2 -1.02,0.2c-0.7,0 -0.96,-0.2 -0.96,-0.2l-0.55,-7.71l-0.11,-1.36c0,0.02 -0.31,0.96 -0.44,1.27l-2.88,7.25z" class="st1"></path></g></g></g></svg>